<svg width="29" height="44" viewBox="0 0 29 44" fill="none" xmlns="http://www.w3.org/2000/svg">
    <path d="M23.2721 23.6167C22.7323 23.6167 22.3222 23.7482 21.8716 23.8927C21.81 23.9124 21.7477 23.9324 21.6843 23.9523C21.1559 24.118 20.5362 24.2833 19.5638 24.2833C18.5704 24.2833 17.9402 24.118 17.4068 23.9523C17.3399 23.9315 17.2745 23.9107 17.2099 23.8901C16.7589 23.7466 16.3505 23.6167 15.8138 23.6167C12.7024 23.6167 10.1805 26.1812 10.1805 29.2917V30.3333C10.1805 31.4859 11.0779 32.3833 12.2305 32.3833H26.8971C28.0074 32.3833 28.9471 31.4866 28.9471 30.3333V29.2917C28.9471 26.1807 26.3831 23.6167 23.2721 23.6167ZM12.2805 30.2833V29.2917C12.2805 27.3185 13.8422 25.7167 15.8138 25.7167C15.9622 25.7167 16.1333 25.7564 16.3446 25.8188C16.4267 25.8431 16.5158 25.871 16.6115 25.9011C16.7579 25.947 16.9199 25.9979 17.0971 26.0481C17.689 26.2157 18.4749 26.3833 19.5638 26.3833C20.632 26.3833 21.4075 26.2157 21.9942 26.0481C22.167 25.9987 22.326 25.9485 22.47 25.9031C22.5677 25.8722 22.6586 25.8435 22.7421 25.8188C22.9527 25.7564 23.1237 25.7167 23.2721 25.7167C25.2445 25.7167 26.8471 27.3193 26.8471 29.2917V30.2833H12.2805ZM19.5638 23.05C22.8829 23.05 25.6138 20.3612 25.6138 17C25.6138 13.6807 22.8831 10.95 19.5638 10.95C16.2026 10.95 13.5138 13.6809 13.5138 17C13.5138 20.3609 16.2029 23.05 19.5638 23.05ZM19.5638 13.05C21.7029 13.05 23.5138 14.8609 23.5138 17C23.5138 19.1804 21.7032 20.95 19.5638 20.95C17.3831 20.95 15.6138 19.1807 15.6138 17C15.6138 14.8606 17.3834 13.05 19.5638 13.05Z" fill="#252525" stroke="#252525" stroke-width="0.1"/>
</svg>
