<svg width="38" height="44" viewBox="0 0 38 44" fill="none" xmlns="http://www.w3.org/2000/svg">
    <path d="M14.917 26.7434L14.5316 24.6062H28.1746C28.7122 24.6062 29.1162 24.2792 29.2505 23.7674L29.2505 23.7674L29.2508 23.7661L31.2228 14.2883L31.2229 14.288C31.3569 13.5916 30.8659 12.8912 30.1466 12.8912H12.3311L11.9408 10.907C11.9407 10.9069 11.9407 10.9068 11.9407 10.9068C11.8512 10.3955 11.4041 9.975 10.9082 9.975H7.5C7.17565 9.975 6.975 10.2637 6.975 10.5468L6.975 11.6404C6.975 11.8048 7.02485 11.9478 7.11633 12.0501C7.20807 12.1526 7.34004 12.2122 7.5 12.2122H10.011L13.0287 28.4015C12.5477 28.9514 12.2855 29.6374 12.2855 30.4138C12.2855 32.067 13.5229 33.355 15.1152 33.355C16.6635 33.355 17.9449 32.0673 17.9449 30.4138C17.9449 29.9202 17.7769 29.4281 17.5651 28.9806H23.8403C23.6301 29.4295 23.5043 29.9213 23.5043 30.4138C23.5043 32.067 24.7416 33.355 26.334 33.355C27.8823 33.355 29.1637 32.0673 29.1637 30.4138C29.1637 29.5911 28.8141 28.8599 28.2897 28.3103L28.3303 28.1413L28.3304 28.1413L28.3306 28.1402C28.4645 27.4438 27.9736 26.7434 27.2543 26.7434H14.917ZM15.1152 31.4823C14.5164 31.4823 14.0885 31.0388 14.0885 30.4138C14.0885 29.8336 14.5171 29.3452 15.1152 29.3452C15.6702 29.3452 16.142 29.8343 16.142 30.4138C16.142 31.0381 15.6709 31.4823 15.1152 31.4823ZM26.334 31.4823C25.7352 31.4823 25.3072 31.0388 25.3072 30.4138C25.3072 29.8336 25.7358 29.3452 26.334 29.3452C26.889 29.3452 27.3607 29.8343 27.3607 30.4138C27.3607 31.0381 26.8896 31.4823 26.334 31.4823ZM28.8449 15.1284L27.3216 22.3691H14.0842L12.735 15.1284H28.8449Z" fill="#252525" stroke="#252525" stroke-width="0.05"/>
    <rect x="20" y="3" width="18" height="18" rx="9" fill="#FF5C00"/>
    <path d="M27.8652 11.2646H28.7197C29.0114 11.2646 29.2507 11.2008 29.4375 11.0732C29.6289 10.9411 29.7702 10.7611 29.8613 10.5332C29.9525 10.3053 29.998 10.041 29.998 9.74023C29.998 9.43034 29.9548 9.16374 29.8682 8.94043C29.7861 8.71712 29.6608 8.54622 29.4922 8.42773C29.3281 8.30924 29.1185 8.25 28.8633 8.25C28.6445 8.25 28.4486 8.30697 28.2754 8.4209C28.1022 8.53027 27.9655 8.68978 27.8652 8.89941C27.7695 9.10449 27.7217 9.34831 27.7217 9.63086H26.1289C26.1289 9.10221 26.2451 8.63281 26.4775 8.22266C26.71 7.8125 27.029 7.49121 27.4346 7.25879C27.8447 7.02181 28.3118 6.90332 28.8359 6.90332C29.3783 6.90332 29.8545 7.01042 30.2646 7.22461C30.6794 7.4388 31.0029 7.75553 31.2354 8.1748C31.4723 8.59408 31.5908 9.11361 31.5908 9.7334C31.5908 10.0205 31.5361 10.3099 31.4268 10.6016C31.3174 10.8932 31.1533 11.1598 30.9346 11.4014C30.7204 11.6383 30.4492 11.8298 30.1211 11.9756C29.7975 12.1214 29.4147 12.1943 28.9727 12.1943H27.8652V11.2646ZM27.8652 12.5771V11.6611H28.9727C29.4831 11.6611 29.9115 11.7295 30.2578 11.8662C30.6087 11.9984 30.889 12.1852 31.0986 12.4268C31.3128 12.6637 31.4678 12.9349 31.5635 13.2402C31.6592 13.5456 31.707 13.8691 31.707 14.2109C31.707 14.6758 31.6341 15.0905 31.4883 15.4551C31.3424 15.8151 31.1396 16.1227 30.8799 16.3779C30.6201 16.6286 30.3148 16.8177 29.9639 16.9453C29.6175 17.0729 29.2393 17.1367 28.8291 17.1367C28.46 17.1367 28.109 17.0775 27.7764 16.959C27.4437 16.8405 27.1475 16.665 26.8877 16.4326C26.6325 16.1956 26.4297 15.9017 26.2793 15.5508C26.1335 15.1953 26.0605 14.7829 26.0605 14.3135H27.6465C27.6465 14.6051 27.6966 14.8626 27.7969 15.0859C27.8971 15.3092 28.0361 15.4847 28.2139 15.6123C28.3962 15.7354 28.6081 15.7969 28.8496 15.7969C29.1094 15.7969 29.3327 15.7354 29.5195 15.6123C29.7109 15.4893 29.8568 15.3092 29.957 15.0723C30.0618 14.8353 30.1143 14.5482 30.1143 14.2109C30.1143 13.8327 30.0573 13.5228 29.9434 13.2812C29.834 13.0397 29.6768 12.862 29.4717 12.748C29.2666 12.6341 29.0182 12.5771 28.7266 12.5771H27.8652Z" fill="white"/>
</svg>
