<svg width="29" height="44" viewBox="0 0 29 44" fill="none" xmlns="http://www.w3.org/2000/svg">
    <mask id="path-1-outside-1_7_21455" maskUnits="userSpaceOnUse" x="-0.900391" y="10" width="22" height="24" fill="black">
        <rect fill="white" x="-0.900391" y="10" width="22" height="24"/>
        <path fill-rule="evenodd" clip-rule="evenodd" d="M10.2918 11C5.84765 11 2.24492 14.6027 2.24492 19.0469V24.8796L0.402333 27.3364C-0.339312 28.3253 0.366275 29.7364 1.60234 29.7364H6.17166C6.37024 31.8368 8.13881 33.4801 10.2912 33.4801C12.4436 33.4801 14.2121 31.8368 14.4107 29.7364H18.9813C20.2174 29.7364 20.923 28.3253 20.1813 27.3364L18.3387 24.8796V19.0469C18.3387 14.6027 14.736 11 10.2918 11ZM12.393 29.7364H8.18941C8.37446 30.7288 9.24509 31.4801 10.2912 31.4801C11.3373 31.4801 12.2079 30.7288 12.393 29.7364ZM4.24492 19.0469C4.24492 15.7073 6.95222 13 10.2918 13C13.6314 13 16.3387 15.7073 16.3387 19.0469V25.213C16.3387 25.4293 16.4089 25.6399 16.5387 25.813L17.9813 27.7364H2.60233L4.04492 25.813C4.17475 25.6399 4.24492 25.4293 4.24492 25.213V19.0469Z"/>
    </mask>
    <path fill-rule="evenodd" clip-rule="evenodd" d="M10.2918 11C5.84765 11 2.24492 14.6027 2.24492 19.0469V24.8796L0.402333 27.3364C-0.339312 28.3253 0.366275 29.7364 1.60234 29.7364H6.17166C6.37024 31.8368 8.13881 33.4801 10.2912 33.4801C12.4436 33.4801 14.2121 31.8368 14.4107 29.7364H18.9813C20.2174 29.7364 20.923 28.3253 20.1813 27.3364L18.3387 24.8796V19.0469C18.3387 14.6027 14.736 11 10.2918 11ZM12.393 29.7364H8.18941C8.37446 30.7288 9.24509 31.4801 10.2912 31.4801C11.3373 31.4801 12.2079 30.7288 12.393 29.7364ZM4.24492 19.0469C4.24492 15.7073 6.95222 13 10.2918 13C13.6314 13 16.3387 15.7073 16.3387 19.0469V25.213C16.3387 25.4293 16.4089 25.6399 16.5387 25.813L17.9813 27.7364H2.60233L4.04492 25.813C4.17475 25.6399 4.24492 25.4293 4.24492 25.213V19.0469Z" fill="#252525"/>
    <path d="M2.24492 24.8796L2.32492 24.9396L2.34492 24.913V24.8796H2.24492ZM0.402333 27.3364L0.322333 27.2764L0.402333 27.3364ZM6.17166 29.7364L6.27122 29.727L6.26265 29.6364H6.17166V29.7364ZM14.4107 29.7364V29.6364H14.3197L14.3112 29.727L14.4107 29.7364ZM18.3387 24.8796H18.2387V24.913L18.2587 24.9396L18.3387 24.8796ZM12.393 29.7364L12.4913 29.7547L12.5133 29.6364H12.393V29.7364ZM8.18941 29.7364V29.6364H8.06904L8.0911 29.7547L8.18941 29.7364ZM16.5387 25.813L16.6187 25.753L16.5387 25.813ZM17.9813 27.7364V27.8364H18.1813L18.0613 27.6764L17.9813 27.7364ZM2.60233 27.7364L2.52233 27.6764L2.40233 27.8364H2.60233V27.7364ZM4.04492 25.813L3.96492 25.753L4.04492 25.813ZM2.34492 19.0469C2.34492 14.658 5.90288 11.1 10.2918 11.1V10.9C5.79242 10.9 2.14492 14.5475 2.14492 19.0469H2.34492ZM2.34492 24.8796V19.0469H2.14492V24.8796H2.34492ZM0.482333 27.3964L2.32492 24.9396L2.16492 24.8196L0.322333 27.2764L0.482333 27.3964ZM1.60234 29.6364C0.448678 29.6364 -0.209869 28.3193 0.482333 27.3964L0.322333 27.2764C-0.468756 28.3312 0.283871 29.8364 1.60234 29.8364V29.6364ZM6.17166 29.6364H1.60234V29.8364H6.17166V29.6364ZM10.2912 33.3801C8.19088 33.3801 6.46499 31.7765 6.27122 29.727L6.07211 29.7458C6.27549 31.8971 8.08674 33.5801 10.2912 33.5801V33.3801ZM14.3112 29.727C14.1174 31.7765 12.3915 33.3801 10.2912 33.3801V33.5801C12.4956 33.5801 14.3069 31.8971 14.5103 29.7458L14.3112 29.727ZM18.9813 29.6364H14.4107V29.8364H18.9813V29.6364ZM20.1013 27.3964C20.7935 28.3193 20.135 29.6364 18.9813 29.6364V29.8364C20.2998 29.8364 21.0524 28.3312 20.2613 27.2764L20.1013 27.3964ZM18.2587 24.9396L20.1013 27.3964L20.2613 27.2764L18.4187 24.8196L18.2587 24.9396ZM18.2387 19.0469V24.8796H18.4387V19.0469H18.2387ZM10.2918 11.1C14.6808 11.1 18.2387 14.658 18.2387 19.0469H18.4387C18.4387 14.5475 14.7912 10.9 10.2918 10.9V11.1ZM12.393 29.6364H8.18941V29.8364H12.393V29.6364ZM8.0911 29.7547C8.28482 30.7937 9.19606 31.5801 10.2912 31.5801V31.3801C9.29413 31.3801 8.4641 30.664 8.28771 29.7181L8.0911 29.7547ZM10.2912 31.5801C11.3863 31.5801 12.2976 30.7937 12.4913 29.7547L12.2947 29.7181C12.1183 30.664 11.2883 31.3801 10.2912 31.3801V31.5801ZM10.2918 12.9C6.89699 12.9 4.14492 15.6521 4.14492 19.0469H4.34492C4.34492 15.7625 7.00744 13.1 10.2918 13.1V12.9ZM16.4387 19.0469C16.4387 15.6521 13.6867 12.9 10.2918 12.9V13.1C13.5762 13.1 16.2387 15.7625 16.2387 19.0469H16.4387ZM16.4387 25.213V19.0469H16.2387V25.213H16.4387ZM16.6187 25.753C16.5019 25.5972 16.4387 25.4077 16.4387 25.213H16.2387C16.2387 25.451 16.3159 25.6825 16.4587 25.873L16.6187 25.753ZM18.0613 27.6764L16.6187 25.753L16.4587 25.873L17.9013 27.7964L18.0613 27.6764ZM2.60233 27.8364H17.9813V27.6364H2.60233V27.8364ZM3.96492 25.753L2.52233 27.6764L2.68233 27.7964L4.12492 25.873L3.96492 25.753ZM4.14492 25.213C4.14492 25.4077 4.08176 25.5972 3.96492 25.753L4.12492 25.873C4.26773 25.6825 4.34492 25.451 4.34492 25.213H4.14492ZM4.14492 19.0469V25.213H4.34492V19.0469H4.14492Z" fill="#252525" mask="url(#path-1-outside-1_7_21455)"/>
    <rect x="11" y="3" width="18" height="18" rx="9" fill="#FF5C00"/>
    <path d="M18.8652 11.2646H19.7197C20.0114 11.2646 20.2507 11.2008 20.4375 11.0732C20.6289 10.9411 20.7702 10.7611 20.8613 10.5332C20.9525 10.3053 20.998 10.041 20.998 9.74023C20.998 9.43034 20.9548 9.16374 20.8682 8.94043C20.7861 8.71712 20.6608 8.54622 20.4922 8.42773C20.3281 8.30924 20.1185 8.25 19.8633 8.25C19.6445 8.25 19.4486 8.30697 19.2754 8.4209C19.1022 8.53027 18.9655 8.68978 18.8652 8.89941C18.7695 9.10449 18.7217 9.34831 18.7217 9.63086H17.1289C17.1289 9.10221 17.2451 8.63281 17.4775 8.22266C17.71 7.8125 18.029 7.49121 18.4346 7.25879C18.8447 7.02181 19.3118 6.90332 19.8359 6.90332C20.3783 6.90332 20.8545 7.01042 21.2646 7.22461C21.6794 7.4388 22.0029 7.75553 22.2354 8.1748C22.4723 8.59408 22.5908 9.11361 22.5908 9.7334C22.5908 10.0205 22.5361 10.3099 22.4268 10.6016C22.3174 10.8932 22.1533 11.1598 21.9346 11.4014C21.7204 11.6383 21.4492 11.8298 21.1211 11.9756C20.7975 12.1214 20.4147 12.1943 19.9727 12.1943H18.8652V11.2646ZM18.8652 12.5771V11.6611H19.9727C20.4831 11.6611 20.9115 11.7295 21.2578 11.8662C21.6087 11.9984 21.889 12.1852 22.0986 12.4268C22.3128 12.6637 22.4678 12.9349 22.5635 13.2402C22.6592 13.5456 22.707 13.8691 22.707 14.2109C22.707 14.6758 22.6341 15.0905 22.4883 15.4551C22.3424 15.8151 22.1396 16.1227 21.8799 16.3779C21.6201 16.6286 21.3148 16.8177 20.9639 16.9453C20.6175 17.0729 20.2393 17.1367 19.8291 17.1367C19.46 17.1367 19.109 17.0775 18.7764 16.959C18.4437 16.8405 18.1475 16.665 17.8877 16.4326C17.6325 16.1956 17.4297 15.9017 17.2793 15.5508C17.1335 15.1953 17.0605 14.7829 17.0605 14.3135H18.6465C18.6465 14.6051 18.6966 14.8626 18.7969 15.0859C18.8971 15.3092 19.0361 15.4847 19.2139 15.6123C19.3962 15.7354 19.6081 15.7969 19.8496 15.7969C20.1094 15.7969 20.3327 15.7354 20.5195 15.6123C20.7109 15.4893 20.8568 15.3092 20.957 15.0723C21.0618 14.8353 21.1143 14.5482 21.1143 14.2109C21.1143 13.8327 21.0573 13.5228 20.9434 13.2812C20.834 13.0397 20.6768 12.862 20.4717 12.748C20.2666 12.6341 20.0182 12.5771 19.7266 12.5771H18.8652Z" fill="white"/>
</svg>
