<svg width="29" height="28" viewBox="0 0 29 28" fill="none" xmlns="http://www.w3.org/2000/svg">
    <path fill-rule="evenodd" clip-rule="evenodd" d="M10.9421 13.976C10.9421 15.9822 12.5662 17.5585 14.5247 17.5585C16.4832 17.5585 18.0595 15.9822 18.0595 13.976C18.0595 12.0174 16.4832 10.4411 14.5247 10.4411C12.5184 10.4411 10.9421 12.0174 10.9421 13.976ZM23.4095 5.0911C24.6515 6.33307 25.0337 7.86164 25.1291 9.58129C25.2247 11.3487 25.2247 16.651 25.1291 18.4184C25.0337 20.138 24.6515 21.6188 23.4095 22.9085C22.1676 24.1505 20.639 24.5327 18.9194 24.6281C17.1519 24.7237 11.8497 24.7237 10.0823 24.6281C8.36261 24.5327 6.88181 24.1505 5.59208 22.9085C4.35011 21.6188 3.96797 20.138 3.87243 18.4184C3.7769 16.651 3.7769 11.3487 3.87243 9.58129C3.96797 7.86164 4.35011 6.33307 5.59208 5.0911C6.88181 3.84913 8.36261 3.46699 10.0823 3.37145C11.8497 3.27592 17.1519 3.27592 18.9194 3.37145C20.639 3.46699 22.1676 3.84913 23.4095 5.0911ZM17.7404 11.7061L18.7494 12.4444C18.8806 12.5099 19.0202 12.5346 19.1678 12.5182C19.3319 12.5017 19.4467 12.4361 19.5124 12.3213C19.5124 12.2885 19.5205 12.2638 19.537 12.2475C19.5697 12.231 19.5943 12.1983 19.6108 12.149L20.669 9.8603L21.7273 12.149C21.76 12.1983 21.7846 12.231 21.8011 12.2475C21.8175 12.2638 21.8257 12.2885 21.8257 12.3213C21.9077 12.4361 22.0226 12.5017 22.1702 12.5182C22.3179 12.5346 22.4573 12.5099 22.5886 12.4444L23.573 11.7061C23.7042 11.624 23.778 11.5092 23.7945 11.3615C23.8109 11.1974 23.778 11.0662 23.6961 10.9678C23.6961 10.9513 23.6468 10.8939 23.5484 10.7955L21.7273 9.12196L24.2129 8.82664C24.2785 8.81024 24.3194 8.80203 24.3359 8.80203C24.3687 8.78563 24.3933 8.77742 24.4098 8.77742C24.5409 8.74461 24.6394 8.66258 24.7051 8.53132C24.7707 8.38366 24.787 8.236 24.7543 8.08834L24.3605 6.90706C24.3277 6.77581 24.2375 6.67737 24.0898 6.61174C23.9585 6.54611 23.8272 6.52971 23.6961 6.56252C23.6796 6.56252 23.614 6.59533 23.4992 6.66096L21.3089 7.89146L21.8011 5.43046C21.8175 5.36483 21.8257 5.32382 21.8257 5.30741V5.23358C21.8257 5.10233 21.7682 4.97928 21.6534 4.86442C21.555 4.74958 21.4319 4.69215 21.2843 4.69215H20.0538C19.9061 4.69215 19.7748 4.74958 19.66 4.86442C19.5616 4.97928 19.5124 5.10233 19.5124 5.23358V5.30741C19.5124 5.32382 19.5205 5.36483 19.537 5.43046L20.0046 7.86685L17.8389 6.66096C17.724 6.59533 17.6584 6.56252 17.642 6.56252C17.5271 6.52971 17.3959 6.54611 17.2482 6.61174C17.1006 6.67737 17.0103 6.77581 16.9775 6.90706L16.5838 8.08834C16.5509 8.236 16.5673 8.38366 16.633 8.53132C16.7149 8.66258 16.8134 8.74461 16.9283 8.77742C16.9447 8.77742 16.961 8.78563 16.9775 8.80203C17.0103 8.80203 17.0595 8.81024 17.1252 8.82664L19.5862 9.09735L17.765 10.7955C17.6666 10.8939 17.6174 10.9513 17.6174 10.9678C17.5517 11.0662 17.5271 11.1974 17.5436 11.3615C17.5599 11.5092 17.6255 11.624 17.7404 11.7061Z" fill="#252525"/>
</svg>
