<svg width="123" height="44" viewBox="0 0 123 44" fill="none" xmlns="http://www.w3.org/2000/svg">
    <path fill-rule="evenodd" clip-rule="evenodd" d="M26.1984 4.53266L36.1858 28.3013L38.1558 26.316L39.8109 24.6502C44.9837 19.4374 45.4854 11.2511 40.6479 6.37698C36.8486 2.54899 31.0275 2.04704 26.1984 4.53266ZM30.6469 33.8832L28.4982 28.0747H15.5258L13.3763 33.9L20.8689 41.4476C21.4974 42.0764 22.5123 42.0764 23.1407 41.4476L30.6469 33.8832ZM7.8435 28.3266L5.84754 26.316L4.19248 24.6502C-0.980033 19.4374 -1.48831 11.2511 3.34921 6.37698C5.76736 3.94058 9.04984 2.84078 12.323 3.01369C14.1842 3.11314 16.052 3.62045 17.7925 4.51814L7.8435 28.3266ZM22.0038 10.5179L17.4371 22.8947H26.5821L22.0038 10.5179Z" fill="#252525"/>
    <path d="M43.1328 20.1719C44.1797 18.875 45.5742 18.2266 47.3164 18.2266C48.2148 18.2266 48.9844 18.4141 49.625 18.7891C50.2734 19.1562 50.7578 19.6914 51.0781 20.3945C51.6719 19.6602 52.3281 19.1172 53.0469 18.7656C53.7656 18.4062 54.5742 18.2266 55.4727 18.2266C56.8164 18.2266 57.8516 18.6133 58.5781 19.3867C59.3047 20.1523 59.668 21.2383 59.668 22.6445V31H56.0703V22.8438C56.0703 22.1094 55.9258 21.5781 55.6367 21.25C55.3477 20.9219 54.8828 20.7578 54.2422 20.7578C53.6641 20.7578 53.1367 20.8867 52.6602 21.1445C52.1836 21.3945 51.7852 21.75 51.4648 22.2109C51.4648 22.2422 51.4727 22.3164 51.4883 22.4336C51.5039 22.543 51.5117 22.6719 51.5117 22.8203V31H47.9141V22.8438C47.9141 22.1094 47.7695 21.5781 47.4805 21.25C47.1914 20.9219 46.7266 20.7578 46.0859 20.7578C45.5234 20.7578 45 20.8906 44.5156 21.1562C44.0312 21.4141 43.6445 21.7656 43.3555 22.2109V31H39.7578V18.4258H42.7578L43.1328 20.1719ZM65.3352 19.6211C66.2648 18.6914 67.3937 18.2266 68.7219 18.2266C70.4641 18.2266 71.8195 18.7734 72.7883 19.8672C73.757 20.9531 74.2414 22.4805 74.2414 24.4492C74.2414 26.5273 73.632 28.168 72.4133 29.3711C71.1945 30.5664 69.5227 31.1641 67.3977 31.1641C66.3117 31.1641 65.2531 31.0938 64.2219 30.9531C63.1984 30.8047 62.3703 30.6133 61.7375 30.3789V12.9531H65.3352V19.6211ZM67.9719 20.7812C67.3156 20.7812 66.7492 20.9648 66.2727 21.332C65.8039 21.6992 65.4914 22.1875 65.3352 22.7969V28.4102C65.8664 28.6211 66.4992 28.7227 67.2336 28.7148C68.3195 28.7148 69.1477 28.3633 69.718 27.6602C70.2961 26.957 70.5852 25.9258 70.5852 24.5664C70.5852 23.3164 70.3625 22.375 69.9172 21.7422C69.4719 21.1016 68.8234 20.7812 67.9719 20.7812ZM78.057 25.3867C78.2445 27.5273 79.3461 28.5977 81.3617 28.5977C81.9867 28.5977 82.6156 28.5273 83.2484 28.3867C83.8812 28.2383 84.5805 28.0039 85.3461 27.6836L86.2133 29.9219C84.307 30.8047 82.5453 31.2422 80.9281 31.2344C78.9437 31.2344 77.3852 30.6562 76.2523 29.5C75.1195 28.3438 74.5531 26.7383 74.5531 24.6836C74.5531 22.6367 75.1078 21.043 76.2172 19.9023C77.3266 18.7539 78.8812 18.1797 80.8812 18.1797C84.6391 18.1797 86.518 20.3086 86.518 24.5664V25.3867H78.057ZM83.2133 23.3008C83.1117 21.5508 82.3422 20.6758 80.9047 20.6758C80.1078 20.6758 79.4789 20.8945 79.018 21.332C78.5648 21.7617 78.268 22.418 78.1273 23.3008H83.2133ZM91.0484 20.1719C91.8375 18.875 92.943 18.2266 94.3648 18.2266C94.6695 18.2266 94.9273 18.2461 95.1383 18.2852C95.357 18.3164 95.6344 18.3789 95.9703 18.4727L95.5602 21.6133C94.8883 21.3711 94.2945 21.2539 93.7789 21.2617C93.2164 21.2617 92.7398 21.3633 92.3492 21.5664C91.9586 21.7617 91.6305 22.0742 91.3648 22.5039V31H87.7555V18.4258H90.6148L91.0484 20.1719ZM99.8094 20.1719C100.598 18.875 101.704 18.2266 103.126 18.2266C103.43 18.2266 103.688 18.2461 103.899 18.2852C104.118 18.3164 104.395 18.3789 104.731 18.4727L104.321 21.6133C103.649 21.3711 103.055 21.2539 102.54 21.2617C101.977 21.2617 101.501 21.3633 101.11 21.5664C100.72 21.7617 100.391 22.0742 100.126 22.5039V31H96.5164V18.4258H99.3758L99.8094 20.1719ZM105.336 13.3633H108.934V16.6445H105.336V13.3633ZM105.336 18.5664H108.934V31H105.336V18.5664ZM113.757 25.3867C113.945 27.5273 115.046 28.5977 117.062 28.5977C117.687 28.5977 118.316 28.5273 118.948 28.3867C119.581 28.2383 120.28 28.0039 121.046 27.6836L121.913 29.9219C120.007 30.8047 118.245 31.2422 116.628 31.2344C114.644 31.2344 113.085 30.6562 111.952 29.5C110.82 28.3438 110.253 26.7383 110.253 24.6836C110.253 22.6367 110.808 21.043 111.917 19.9023C113.027 18.7539 114.581 18.1797 116.581 18.1797C120.339 18.1797 122.218 20.3086 122.218 24.5664V25.3867H113.757ZM118.913 23.3008C118.812 21.5508 118.042 20.6758 116.605 20.6758C115.808 20.6758 115.179 20.8945 114.718 21.332C114.265 21.7617 113.968 22.418 113.827 23.3008H118.913Z" fill="#252525"/>
</svg>
