<svg xmlns="http://www.w3.org/2000/svg" width="29" height="28" viewBox="0 0 29 28" fill="none">
    <path fill-rule="evenodd" clip-rule="evenodd" d="M7.46794 17.0152L6.03154 15.5668L6.06921 15.6045L8.88205 12.7711C8.88205 12.7711 8.87393 12.7609 8.85691 12.7428L8.88248 12.7676L11.7061 9.92112L14.5427 7.06091V7.05984L14.5331 7.06931L14.5319 7.06814C14.8608 6.74676 15.1234 6.49379 15.2994 6.32995C15.9038 5.8444 16.5201 5.50542 17.215 5.27627C17.6234 5.14163 17.9672 5.06574 18.4241 5.00943C18.7065 4.97463 19.4083 4.97021 19.6803 5.00151C20.1407 5.0545 20.5804 5.15121 20.9835 5.28813L21.0192 5.30048L8.38245 17.9372L7.46794 17.0152ZM8.86638 18.4251L8.38245 17.9372L9.08488 18.6478C9.48069 19.0467 9.88144 19.4498 10.2822 19.8529C10.7576 20.3311 11.2397 20.8039 11.7068 21.2749C13.0895 22.6673 14.2284 23.8167 14.249 23.8274C14.2706 23.8384 14.3165 23.8569 14.3511 23.8684C14.3867 23.8803 14.4585 23.8869 14.5173 23.8838C14.5307 23.883 14.542 23.8837 14.5524 23.8844C14.5578 23.8847 14.5633 23.885 14.5686 23.8851C14.6997 23.8875 14.8333 23.7527 18.2769 20.2784L19.1267 19.421C21.5024 17.0247 23.509 14.9892 23.5857 14.8977C23.9409 14.475 24.2346 14.0194 24.4537 13.5511C25.1093 12.1498 25.2059 10.5747 24.7382 9.11257L24.5552 8.61503L24.5494 8.60124C24.5047 8.49459 24.4634 8.40732 24.4578 8.40732C24.4578 8.40732 24.491 8.37069 24.4549 8.40671L24.3866 8.25753C23.8445 7.1681 22.9327 6.23498 21.8539 5.66575L21.6497 5.55816C21.6242 5.54202 21.5346 5.50238 21.4243 5.45688L21.0192 5.30048C21.1359 5.34153 21.2944 5.40328 21.4243 5.45688L21.6508 5.55885L8.86638 18.4251ZM21.6497 5.55816L21.9835 5.73637L9.08488 18.6478L8.86514 18.4264L8.86638 18.4251L8.86935 18.4281C11.0497 16.2238 12.6985 14.5547 14.3944 12.8826C16.8501 10.3555 18.9266 8.32283 21.6497 5.55816ZM24.1418 8.72286C24.2616 8.60264 24.4026 8.45887 24.4549 8.40671L24.5552 8.61503C24.6236 8.77912 24.6845 8.9451 24.7382 9.11257L12.1385 21.7097L11.7086 21.2766L13.6349 19.3287L24.1418 8.72286ZM24.1418 8.72286C23.5452 9.32131 22.1668 10.7082 20.548 12.338L13.6349 19.3287L11.7068 21.2749L11.4433 21.0104L24.3219 8.13167L24.4578 8.40732L24.1418 8.72286ZM14.5188 7.08094C14.5231 7.07666 14.5275 7.0724 14.5319 7.06814L14.5328 7.0669L14.1083 6.65315L13.8054 6.38124C13.6984 6.29118 13.5927 6.2092 13.479 6.12706C12.6392 5.52062 11.7213 5.16714 10.6467 5.03639C10.4909 5.01743 10.2518 5.00788 10.0122 5.00779C9.77267 5.00769 9.53261 5.01707 9.37489 5.03591C8.91005 5.09143 8.47436 5.18889 8.05999 5.33159L7.62339 5.50211C7.55484 5.53218 7.48682 5.5636 7.41931 5.59641L7.4181 5.5952L7.27578 5.66728C6.70645 5.95555 6.06447 6.44406 5.6383 6.91331C5.24331 7.34822 4.9953 7.69727 4.72256 8.20214L4.59328 8.4462L4.59427 8.44831L4.50189 8.66658L4.47953 8.72014L4.32789 9.12955C4.20185 9.51143 4.11263 9.90871 4.05911 10.3256C4.02361 10.6021 4.01855 11.433 4.05077 11.6949C4.19946 12.9031 4.61736 13.9086 5.3558 14.8299L5.63377 15.1385L5.86997 15.4008L5.89803 15.4296L6.03154 15.5668C6.02658 15.5718 6.03649 15.5618 6.03154 15.5668L6.04748 15.5523L8.85691 12.7428C8.85414 12.7399 8.85115 12.7367 8.84793 12.7333L8.85691 12.7428L10.2747 11.3251L11.6924 9.90732L11.7061 9.92112L11.7077 9.91949L11.694 9.90571L14.5188 7.08094ZM11.6819 9.89351C12.7978 8.77897 13.81 7.77351 14.5188 7.08094L14.5319 7.06814L14.2659 6.80582C14.0946 6.63671 13.9487 6.50175 13.8054 6.38124L11.4575 8.72914L8.05999 5.33159C7.91185 5.38259 7.76643 5.43939 7.62339 5.50211L7.4181 5.5952L7.41931 5.59641L7.09046 5.76666L10.751 9.43565L8.15684 12.0298L8.1546 12.0276L8.39678 11.7854L4.75042 8.15097L4.59427 8.44831L4.47953 8.72014C4.4241 8.85471 4.37357 8.99112 4.32789 9.12955L7.69026 12.4919L8.15126 12.0309L8.15351 12.0332L5.3558 14.8299L5.63377 15.1385L6.03154 15.5668C6.8222 14.7703 7.81874 13.7672 8.84793 12.7333C9.78833 11.7887 10.7689 10.8054 11.6803 9.89514L11.6924 9.90732L11.694 9.90571L11.6819 9.89351Z" fill="#252525"/>
</svg>