<svg xmlns="http://www.w3.org/2000/svg" width="29" height="28" viewBox="0 0 29 28" fill="none">
    <path d="M19.9377 17.7723C21.4498 16.78 22.1585 16.213 21.5443 14.9844C21.2135 14.3229 20.2212 13.7559 18.9927 14.7482C18.9927 14.7482 17.2444 16.1185 14.5038 16.1185C11.7159 16.1185 10.0149 14.7482 10.0149 14.7482C8.73908 13.7086 7.79404 14.3229 7.41603 14.9844C6.84901 16.213 7.51054 16.78 9.02259 17.7723C10.3456 18.6228 12.1412 18.9536 13.3225 19.0481L12.3302 20.0404C10.9599 21.4107 9.68411 22.7337 8.73908 23.6315C7.41603 24.9545 9.54236 27.0809 10.9127 25.8051L14.5038 22.1667C15.8741 23.5842 17.1971 24.9073 18.0949 25.8051C19.4179 27.1281 21.5915 25.0018 20.2685 23.6315L16.6774 20.0404L15.6851 19.0481C16.8664 18.9536 18.6147 18.6228 19.9377 17.7723ZM8.36106 8.13295C8.36106 11.5351 11.1017 14.2757 14.5038 14.2757C17.8586 14.2757 20.5992 11.5351 20.5992 8.13295C20.5992 4.73083 17.8586 1.99023 14.5038 1.99023C11.1017 1.99023 8.36106 4.73083 8.36106 8.13295ZM11.4797 8.13295C11.4797 6.47914 12.8027 5.10884 14.5038 5.10884C16.1576 5.10884 17.4806 6.47914 17.4806 8.13295C17.4806 9.78675 16.1576 11.1571 14.5038 11.1571C12.8027 11.1571 11.4797 9.78675 11.4797 8.13295Z" fill="#252525"/>
</svg>