<svg xmlns="http://www.w3.org/2000/svg" width="22" height="36" viewBox="0 0 22 36" fill="none">
    <path d="M16.3949 22.2293L16.3879 22.2223L16.3797 22.2168L16.377 22.2151C16.3164 22.1746 16.2495 22.1301 16.1814 22.096C16.1121 22.0614 16.0336 22.0334 15.9492 22.0334H15.6222C16.8488 20.5365 17.6326 18.5804 17.6326 16.4667C17.6326 11.6615 13.6711 7.70005 8.86588 7.70005C4.01868 7.70005 0.0992187 11.6618 0.0992187 16.4667C0.0992187 21.3136 4.01899 25.2334 8.86588 25.2334C10.9814 25.2334 12.9003 24.4871 14.4326 23.2612V23.5917C14.4326 23.7401 14.4823 23.8841 14.5743 24.0222L14.5798 24.0304L14.5868 24.0374L19.6285 29.0791C19.8696 29.3202 20.2703 29.334 20.482 29.0754L21.4329 28.1245C21.6915 27.9128 21.6777 27.5121 21.4366 27.271L16.3949 22.2293ZM8.86588 23.0334C5.21278 23.0334 2.29922 20.1198 2.29922 16.4667C2.29922 12.8549 5.21319 9.90005 8.86588 9.90005C12.4773 9.90005 15.4326 12.8553 15.4326 16.4667C15.4326 20.1194 12.4777 23.0334 8.86588 23.0334Z" fill="#252525" stroke="#252525" stroke-width="0.2"/>
</svg>