<svg xmlns="http://www.w3.org/2000/svg" width="29" height="28" viewBox="0 0 29 28" fill="none">
    <path d="M23.9631 12.0564V8.38069C23.9208 8.38069 23.9208 8.38069 23.9208 8.38069C22.9068 8.38069 21.9351 8.08494 21.1323 7.53569C19.9493 6.7752 19.1043 5.54995 18.8508 4.15571C18.7663 3.85996 18.7663 3.56421 18.7663 3.26846C18.7663 3.22621 18.7663 3.22621 18.7663 3.18396H15.0484V17.9714C15.0484 19.7036 13.6119 21.1401 11.8796 21.1401C10.1474 21.1401 8.71089 19.7036 8.71089 17.9714C8.71089 16.2392 10.1474 14.8027 11.8796 14.8027C12.2176 14.8027 12.5134 14.8449 12.8514 14.9717V11.1692C12.5134 11.1269 12.2176 11.0847 11.8796 11.0847C8.07714 11.0847 5.03516 14.1689 5.03516 17.9714C5.03516 21.7739 8.07714 24.8159 11.8796 24.8159C15.6821 24.8159 18.7663 21.7739 18.7663 17.9714V10.4087C20.2028 11.4649 21.9773 12.0564 23.9208 12.0564H23.9631Z" fill="#252525"/>
</svg>