
<svg width="29" height="28" viewBox="0 0 29 28" fill="none" xmlns="http://www.w3.org/2000/svg">
    <path d="M26.3227 7.67496C26.4602 7.12496 26.3227 6.66663 25.4975 6.66663H22.7929C22.1052 6.66663 21.7843 7.03329 21.601 7.44579C21.601 7.44579 20.2257 10.7916 18.3004 12.9916C17.6586 13.5875 17.3835 13.8166 17.0168 13.8166C16.8793 13.8166 16.6042 13.5875 16.6042 13.0375V7.67496C16.6042 6.98746 16.4209 6.66663 15.8249 6.66663H11.6075C11.1491 6.66663 10.9198 6.98746 10.9198 7.30829C10.9198 7.94996 11.8825 8.08746 11.9742 9.92079V13.9083C11.9742 14.7791 11.8367 14.9625 11.4699 14.9625C10.5531 14.9625 8.3527 11.5708 7.02329 7.72079C6.74824 6.98746 6.47319 6.66663 5.78556 6.66663H3.0809C2.34743 6.66663 2.16406 7.03329 2.16406 7.44579C2.16406 8.17913 3.0809 11.7083 6.42735 16.4291C8.6736 19.6375 11.8367 21.3333 14.6789 21.3333C16.375 21.3333 16.6042 20.9666 16.6042 20.325C16.6042 17.2541 16.4667 16.9333 17.2919 16.9333C17.7044 16.9333 18.3921 17.1625 19.9965 18.7208C21.8302 20.5541 22.1511 21.3333 23.1596 21.3333H25.8643C26.6436 21.3333 27.0103 20.9666 26.7811 20.1875C26.2768 18.6291 22.8387 15.3291 22.6553 15.1C22.2428 14.5958 22.3803 14.3666 22.6553 13.9083C22.6553 13.9083 25.956 9.23329 26.3227 7.67496Z" fill="#252525"/>
</svg>
