<svg width="29" height="28" viewBox="0 0 29 28" fill="none" xmlns="http://www.w3.org/2000/svg">
    <path d="M25.4108 8.54167C25.1608 7.54167 24.3691 6.75 23.4108 6.5C21.6191 6 14.5358 6 14.5358 6C14.5358 6 7.41081 6 5.61914 6.5C4.66081 6.75 3.86914 7.54167 3.61914 8.54167C3.11914 10.2917 3.11914 14.0417 3.11914 14.0417C3.11914 14.0417 3.11914 17.75 3.61914 19.5417C3.86914 20.5417 4.66081 21.2917 5.61914 21.5417C7.41081 22 14.5358 22 14.5358 22C14.5358 22 21.6191 22 23.4108 21.5417C24.3691 21.2917 25.1608 20.5417 25.4108 19.5417C25.9108 17.75 25.9108 14.0417 25.9108 14.0417C25.9108 14.0417 25.9108 10.2917 25.4108 8.54167ZM12.2025 17.4167V10.6667L18.1191 14.0417L12.2025 17.4167Z" fill="#252525"/>
</svg>
